<mxfile host="app.diagrams.net" modified="2021-10-19T02:56:25.345Z" agent="5.0 (X11)" etag="EqUZ2jD0moNngZkisyRg" version="15.5.5" type="github" pages="2">
  <diagram name="架构" id="c7558073-3199-34d8-9f00-42111426c3f3">
    <mxGraphModel dx="1588" dy="899" grid="1" gridSize="10" guides="1" tooltips="1" connect="1" arrows="1" fold="1" page="1" pageScale="1" pageWidth="826" pageHeight="1169" background="none" math="0" shadow="0">
      <root>
        <mxCell id="0" />
        <mxCell id="1" parent="0" />
        <mxCell id="FX_yhc1pr7L3NUCvsDV_-106" value="" style="rounded=1;whiteSpace=wrap;html=1;verticalAlign=middle;dashed=1;" parent="1" vertex="1">
          <mxGeometry x="13" y="680" width="800" height="89" as="geometry" />
        </mxCell>
        <mxCell id="FX_yhc1pr7L3NUCvsDV_-135" style="edgeStyle=orthogonalEdgeStyle;rounded=0;orthogonalLoop=1;jettySize=auto;html=1;exitX=0.14;exitY=0;exitDx=0;exitDy=0;entryX=0.5;entryY=1;entryDx=0;entryDy=0;startArrow=none;startFill=0;fillColor=#f8cecc;strokeColor=#b85450;exitPerimeter=0;" parent="1" source="5" target="FX_yhc1pr7L3NUCvsDV_-131" edge="1">
          <mxGeometry relative="1" as="geometry">
            <Array as="points">
              <mxPoint x="209" y="571" />
            </Array>
          </mxGeometry>
        </mxCell>
        <mxCell id="FX_yhc1pr7L3NUCvsDV_-136" value="Log存储" style="edgeLabel;html=1;align=center;verticalAlign=middle;resizable=0;points=[];" parent="FX_yhc1pr7L3NUCvsDV_-135" vertex="1" connectable="0">
          <mxGeometry x="-0.253" y="-1" relative="1" as="geometry">
            <mxPoint x="-1" y="-12" as="offset" />
          </mxGeometry>
        </mxCell>
        <mxCell id="FX_yhc1pr7L3NUCvsDV_-139" style="edgeStyle=orthogonalEdgeStyle;rounded=0;orthogonalLoop=1;jettySize=auto;html=1;exitX=1;exitY=0.75;exitDx=0;exitDy=0;entryX=0;entryY=0.75;entryDx=0;entryDy=0;startArrow=none;startFill=0;fillColor=#f8cecc;strokeColor=#b85450;" parent="1" source="5" target="FX_yhc1pr7L3NUCvsDV_-116" edge="1">
          <mxGeometry relative="1" as="geometry">
            <Array as="points">
              <mxPoint x="551" y="611" />
            </Array>
          </mxGeometry>
        </mxCell>
        <mxCell id="FX_yhc1pr7L3NUCvsDV_-141" value="测试结果" style="edgeLabel;html=1;align=center;verticalAlign=middle;resizable=0;points=[];" parent="FX_yhc1pr7L3NUCvsDV_-139" vertex="1" connectable="0">
          <mxGeometry x="-0.119" y="-4" relative="1" as="geometry">
            <mxPoint x="12" as="offset" />
          </mxGeometry>
        </mxCell>
        <mxCell id="FX_yhc1pr7L3NUCvsDV_-157" style="edgeStyle=orthogonalEdgeStyle;rounded=0;orthogonalLoop=1;jettySize=auto;html=1;entryX=0.75;entryY=1;entryDx=0;entryDy=0;startArrow=none;startFill=0;fillColor=#f8cecc;strokeColor=#b85450;" parent="1" source="5" target="FX_yhc1pr7L3NUCvsDV_-143" edge="1">
          <mxGeometry relative="1" as="geometry">
            <Array as="points">
              <mxPoint x="381" y="505" />
            </Array>
          </mxGeometry>
        </mxCell>
        <mxCell id="FX_yhc1pr7L3NUCvsDV_-158" value="&lt;div align=&quot;left&quot;&gt;测试运行结束后的结果&lt;/div&gt;&lt;div align=&quot;left&quot;&gt;&lt;br&gt;&lt;/div&gt;&lt;div align=&quot;left&quot;&gt;测试框架运行的状态&lt;br&gt;&lt;/div&gt;" style="edgeLabel;html=1;align=left;verticalAlign=middle;resizable=0;points=[];" parent="FX_yhc1pr7L3NUCvsDV_-157" vertex="1" connectable="0">
          <mxGeometry x="0.487" y="-2" relative="1" as="geometry">
            <mxPoint x="-22" y="24" as="offset" />
          </mxGeometry>
        </mxCell>
        <mxCell id="5" value="自动测试框架 集群" style="shape=process;whiteSpace=wrap;align=center;verticalAlign=middle;size=0.0475;fontStyle=1;strokeWidth=3;fillColor=#FFCCCC" parent="1" vertex="1">
          <mxGeometry x="150.99999999999991" y="571" width="400" height="50" as="geometry" />
        </mxCell>
        <mxCell id="14" value="uos" style="whiteSpace=wrap;align=center;verticalAlign=middle;fontStyle=1;strokeWidth=3;fillColor=#FFFFCC" parent="1" vertex="1">
          <mxGeometry x="169.49999999999997" y="693.9999999999999" width="90" height="60" as="geometry" />
        </mxCell>
        <mxCell id="FX_yhc1pr7L3NUCvsDV_-97" value="usimlite" style="whiteSpace=wrap;align=center;verticalAlign=middle;fontStyle=1;strokeWidth=3;fillColor=#FFFFCC" parent="1" vertex="1">
          <mxGeometry x="306" y="693.9999999999999" width="90" height="60" as="geometry" />
        </mxCell>
        <mxCell id="FX_yhc1pr7L3NUCvsDV_-98" value="usim" style="whiteSpace=wrap;align=center;verticalAlign=middle;fontStyle=1;strokeWidth=3;fillColor=#FFFFCC" parent="1" vertex="1">
          <mxGeometry x="438.5" y="693.9999999999999" width="90" height="60" as="geometry" />
        </mxCell>
        <mxCell id="FX_yhc1pr7L3NUCvsDV_-99" value="cooperative" style="whiteSpace=wrap;align=center;verticalAlign=middle;fontStyle=1;strokeWidth=3;fillColor=#FFFFCC" parent="1" vertex="1">
          <mxGeometry x="569.5" y="693.9999999999999" width="90" height="60" as="geometry" />
        </mxCell>
        <mxCell id="FX_yhc1pr7L3NUCvsDV_-100" value="compass" style="whiteSpace=wrap;align=center;verticalAlign=middle;fontStyle=1;strokeWidth=3;fillColor=#FFFFCC" parent="1" vertex="1">
          <mxGeometry x="28.5" y="693.9999999999999" width="90" height="60" as="geometry" />
        </mxCell>
        <mxCell id="FX_yhc1pr7L3NUCvsDV_-108" style="edgeStyle=orthogonalEdgeStyle;rounded=0;orthogonalLoop=1;jettySize=auto;html=1;exitX=0.5;exitY=1;exitDx=0;exitDy=0;" parent="1" edge="1">
          <mxGeometry relative="1" as="geometry">
            <mxPoint x="735.5" y="759" as="sourcePoint" />
            <mxPoint x="735.5" y="759" as="targetPoint" />
          </mxGeometry>
        </mxCell>
        <mxCell id="FX_yhc1pr7L3NUCvsDV_-109" value="sdk" style="whiteSpace=wrap;align=center;verticalAlign=middle;fontStyle=1;strokeWidth=3;fillColor=#FFFFCC" parent="1" vertex="1">
          <mxGeometry x="704" y="694.4999999999999" width="90" height="60" as="geometry" />
        </mxCell>
        <mxCell id="FX_yhc1pr7L3NUCvsDV_-115" value="" style="edgeStyle=elbowEdgeStyle;elbow=horizontal;strokeColor=#990000;strokeWidth=2;entryX=0.5;entryY=1;entryDx=0;entryDy=0;startArrow=classic;startFill=1;" parent="1" target="5" edge="1">
          <mxGeometry width="100" height="100" relative="1" as="geometry">
            <mxPoint x="351" y="680" as="sourcePoint" />
            <mxPoint x="270" y="466" as="targetPoint" />
            <Array as="points">
              <mxPoint x="351" y="680" />
              <mxPoint x="351" y="650" />
              <mxPoint x="340" y="650" />
              <mxPoint x="300" y="660" />
              <mxPoint x="270" y="510" />
            </Array>
          </mxGeometry>
        </mxCell>
        <mxCell id="FX_yhc1pr7L3NUCvsDV_-120" style="edgeStyle=orthogonalEdgeStyle;rounded=1;orthogonalLoop=1;jettySize=auto;html=1;entryX=1;entryY=0.25;entryDx=0;entryDy=0;startArrow=none;startFill=0;fillColor=#f8cecc;strokeColor=#b85450;exitX=0;exitY=0.25;exitDx=0;exitDy=0;" parent="1" source="FX_yhc1pr7L3NUCvsDV_-116" target="5" edge="1">
          <mxGeometry relative="1" as="geometry">
            <Array as="points">
              <mxPoint x="704" y="584" />
              <mxPoint x="628" y="584" />
            </Array>
          </mxGeometry>
        </mxCell>
        <mxCell id="FX_yhc1pr7L3NUCvsDV_-142" value="Docker提交测试" style="edgeLabel;html=1;align=center;verticalAlign=middle;resizable=0;points=[];" parent="FX_yhc1pr7L3NUCvsDV_-120" vertex="1" connectable="0">
          <mxGeometry x="-0.0128" y="-4" relative="1" as="geometry">
            <mxPoint as="offset" />
          </mxGeometry>
        </mxCell>
        <mxCell id="FX_yhc1pr7L3NUCvsDV_-116" value="用户提交&#xa;行为脚本" style="whiteSpace=wrap;align=center;verticalAlign=middle;fontStyle=1;strokeWidth=3;fillColor=#d5e8d4;strokeColor=default;rounded=1;" parent="1" vertex="1">
          <mxGeometry x="704" y="565.9999999999999" width="90" height="60" as="geometry" />
        </mxCell>
        <mxCell id="FX_yhc1pr7L3NUCvsDV_-124" value="Mysql数据库" style="whiteSpace=wrap;align=center;verticalAlign=middle;fontStyle=1;strokeWidth=3;fillColor=#dae8fc;strokeColor=#6c8ebf;" parent="1" vertex="1">
          <mxGeometry x="461" y="409.9999999999999" width="90" height="60" as="geometry" />
        </mxCell>
        <mxCell id="FX_yhc1pr7L3NUCvsDV_-162" style="edgeStyle=orthogonalEdgeStyle;rounded=0;orthogonalLoop=1;jettySize=auto;html=1;exitX=1;exitY=0.5;exitDx=0;exitDy=0;startArrow=classic;startFill=1;fillColor=#f8cecc;strokeColor=#b85450;" parent="1" source="FX_yhc1pr7L3NUCvsDV_-131" target="FX_yhc1pr7L3NUCvsDV_-143" edge="1">
          <mxGeometry relative="1" as="geometry" />
        </mxCell>
        <mxCell id="FX_yhc1pr7L3NUCvsDV_-131" value="洛书数据平台" style="whiteSpace=wrap;align=center;verticalAlign=middle;fontStyle=1;strokeWidth=3;fillColor=#dae8fc;strokeColor=#6c8ebf;" parent="1" vertex="1">
          <mxGeometry x="164" y="409.9999999999999" width="90" height="60" as="geometry" />
        </mxCell>
        <mxCell id="FX_yhc1pr7L3NUCvsDV_-159" style="edgeStyle=orthogonalEdgeStyle;rounded=0;orthogonalLoop=1;jettySize=auto;html=1;exitX=0.25;exitY=1;exitDx=0;exitDy=0;entryX=0.459;entryY=0.02;entryDx=0;entryDy=0;entryPerimeter=0;startArrow=none;startFill=0;fillColor=#f8cecc;strokeColor=#b85450;" parent="1" source="FX_yhc1pr7L3NUCvsDV_-143" target="5" edge="1">
          <mxGeometry relative="1" as="geometry" />
        </mxCell>
        <mxCell id="FX_yhc1pr7L3NUCvsDV_-160" value="请求唯一task_id" style="edgeLabel;html=1;align=center;verticalAlign=middle;resizable=0;points=[];" parent="FX_yhc1pr7L3NUCvsDV_-159" vertex="1" connectable="0">
          <mxGeometry x="-0.3637" y="-1" relative="1" as="geometry">
            <mxPoint x="-21" y="18" as="offset" />
          </mxGeometry>
        </mxCell>
        <mxCell id="FX_yhc1pr7L3NUCvsDV_-161" style="edgeStyle=orthogonalEdgeStyle;rounded=0;orthogonalLoop=1;jettySize=auto;html=1;exitX=1;exitY=0.5;exitDx=0;exitDy=0;entryX=0;entryY=0.5;entryDx=0;entryDy=0;startArrow=classic;startFill=1;fillColor=#f8cecc;strokeColor=#b85450;" parent="1" source="FX_yhc1pr7L3NUCvsDV_-143" target="FX_yhc1pr7L3NUCvsDV_-124" edge="1">
          <mxGeometry relative="1" as="geometry" />
        </mxCell>
        <mxCell id="FX_yhc1pr7L3NUCvsDV_-164" style="edgeStyle=orthogonalEdgeStyle;rounded=0;orthogonalLoop=1;jettySize=auto;html=1;exitX=0.5;exitY=0;exitDx=0;exitDy=0;startArrow=classic;startFill=1;entryX=0.5;entryY=1;entryDx=0;entryDy=0;fillColor=#f8cecc;strokeColor=#b85450;" parent="1" source="FX_yhc1pr7L3NUCvsDV_-143" target="FX_yhc1pr7L3NUCvsDV_-165" edge="1">
          <mxGeometry relative="1" as="geometry">
            <mxPoint x="358.3333333333335" y="360" as="targetPoint" />
          </mxGeometry>
        </mxCell>
        <mxCell id="FX_yhc1pr7L3NUCvsDV_-143" value="仿真数据后端" style="whiteSpace=wrap;align=center;verticalAlign=middle;fontStyle=1;strokeWidth=3;fillColor=#d5e8d4;strokeColor=default;rounded=1;" parent="1" vertex="1">
          <mxGeometry x="313" y="410" width="90" height="60" as="geometry" />
        </mxCell>
        <mxCell id="FX_yhc1pr7L3NUCvsDV_-163" value="&lt;div align=&quot;center&quot;&gt;仿真数据后端负责管理仿真Mysql数据库&lt;/div&gt;&lt;div align=&quot;left&quot;&gt;功能如下：&lt;/div&gt;&lt;div align=&quot;left&quot;&gt;1. 赋予自动化测试框架集群每一次请求唯一的task_id&lt;/div&gt;&lt;div align=&quot;left&quot;&gt;2. 管理自动测试框架提交的测试运行结果&lt;br&gt;&lt;/div&gt;&lt;div&gt;3. 每天（周）将mysql数据备份至洛书平台&lt;/div&gt;&lt;div&gt;&lt;br&gt;&lt;/div&gt;&lt;div&gt;如果仿真数据后端失效：&lt;/div&gt;&lt;div&gt;task_id还是按照现有时间戳的方式生成&lt;br&gt;&lt;/div&gt;" style="text;html=1;strokeColor=none;fillColor=none;align=left;verticalAlign=middle;whiteSpace=wrap;rounded=0;" parent="1" vertex="1">
          <mxGeometry x="573" y="260" width="227" height="140" as="geometry" />
        </mxCell>
        <mxCell id="FX_yhc1pr7L3NUCvsDV_-165" value="前端数据展示" style="whiteSpace=wrap;align=center;verticalAlign=middle;fontStyle=1;strokeWidth=3;fillColor=#FFFFCC;rounded=1;" parent="1" vertex="1">
          <mxGeometry x="313" y="299.9999999999999" width="90" height="60" as="geometry" />
        </mxCell>
        <mxCell id="FX_yhc1pr7L3NUCvsDV_-168" value="" style="curved=1;endArrow=classic;html=1;rounded=0;exitX=1;exitY=0;exitDx=0;exitDy=0;entryX=0;entryY=0.5;entryDx=0;entryDy=0;dashed=1;" parent="1" source="FX_yhc1pr7L3NUCvsDV_-143" target="FX_yhc1pr7L3NUCvsDV_-163" edge="1">
          <mxGeometry width="50" height="50" relative="1" as="geometry">
            <mxPoint x="440" y="370" as="sourcePoint" />
            <mxPoint x="490" y="320" as="targetPoint" />
            <Array as="points">
              <mxPoint x="460" y="340" />
            </Array>
          </mxGeometry>
        </mxCell>
        <mxCell id="FX_yhc1pr7L3NUCvsDV_-169" value="每天的log存储在每天的文件夹中（每一天的文件夹按照不同测试结果的文件夹分别存储？）" style="text;html=1;strokeColor=none;fillColor=none;align=left;verticalAlign=middle;whiteSpace=wrap;rounded=0;" parent="1" vertex="1">
          <mxGeometry x="14.75" y="470" width="117.5" height="80" as="geometry" />
        </mxCell>
        <mxCell id="FX_yhc1pr7L3NUCvsDV_-172" value="" style="curved=1;endArrow=classic;html=1;rounded=0;dashed=1;entryX=1;entryY=0.5;entryDx=0;entryDy=0;" parent="1" target="FX_yhc1pr7L3NUCvsDV_-169" edge="1">
          <mxGeometry width="50" height="50" relative="1" as="geometry">
            <mxPoint x="180" y="520" as="sourcePoint" />
            <mxPoint x="120" y="380" as="targetPoint" />
            <Array as="points">
              <mxPoint x="160" y="520" />
            </Array>
          </mxGeometry>
        </mxCell>
      </root>
    </mxGraphModel>
  </diagram>
  <diagram id="htFkKGqPU_w1lJaqrwwq" name="case">
    <mxGraphModel dx="1125" dy="637" grid="0" gridSize="10" guides="1" tooltips="1" connect="1" arrows="1" fold="1" page="0" pageScale="1" pageWidth="1169" pageHeight="827" math="0" shadow="0">
      <root>
        <mxCell id="xqcd4H1gL1RNRrl_MpNa-0" />
        <mxCell id="xqcd4H1gL1RNRrl_MpNa-1" parent="xqcd4H1gL1RNRrl_MpNa-0" />
        <mxCell id="8mWA7OG3oaemWvRflyDh-5" style="edgeStyle=orthogonalEdgeStyle;rounded=0;orthogonalLoop=1;jettySize=auto;html=1;exitX=0.5;exitY=1;exitDx=0;exitDy=0;" edge="1" parent="xqcd4H1gL1RNRrl_MpNa-1" source="8mWA7OG3oaemWvRflyDh-0" target="8mWA7OG3oaemWvRflyDh-1">
          <mxGeometry relative="1" as="geometry" />
        </mxCell>
        <mxCell id="8mWA7OG3oaemWvRflyDh-0" value="初始化仿真测试用例&#xa;case_setup_description(&quot;case1_demo&quot;, &quot;ci&quot;)" style="whiteSpace=wrap;align=center;verticalAlign=middle;fontStyle=1;strokeWidth=3;fillColor=#FFFFCC;rounded=1;" vertex="1" parent="xqcd4H1gL1RNRrl_MpNa-1">
          <mxGeometry x="40" y="150" width="270" height="50" as="geometry" />
        </mxCell>
        <mxCell id="8mWA7OG3oaemWvRflyDh-6" style="edgeStyle=orthogonalEdgeStyle;rounded=0;orthogonalLoop=1;jettySize=auto;html=1;exitX=0.5;exitY=1;exitDx=0;exitDy=0;" edge="1" parent="xqcd4H1gL1RNRrl_MpNa-1" source="8mWA7OG3oaemWvRflyDh-1" target="8mWA7OG3oaemWvRflyDh-2">
          <mxGeometry relative="1" as="geometry" />
        </mxCell>
        <mxCell id="8mWA7OG3oaemWvRflyDh-1" value="初始化仿真器simulation_setup(&quot;reg.uisee.ai/sim:3.0&quot;, &quot;./config/sim_config.json&quot;)" style="whiteSpace=wrap;align=center;verticalAlign=middle;fontStyle=1;strokeWidth=3;fillColor=#FFFFCC;rounded=1;" vertex="1" parent="xqcd4H1gL1RNRrl_MpNa-1">
          <mxGeometry x="40" y="230" width="270" height="50" as="geometry" />
        </mxCell>
        <mxCell id="8mWA7OG3oaemWvRflyDh-7" style="edgeStyle=orthogonalEdgeStyle;rounded=0;orthogonalLoop=1;jettySize=auto;html=1;exitX=0.5;exitY=1;exitDx=0;exitDy=0;" edge="1" parent="xqcd4H1gL1RNRrl_MpNa-1" source="8mWA7OG3oaemWvRflyDh-2" target="8mWA7OG3oaemWvRflyDh-3">
          <mxGeometry relative="1" as="geometry" />
        </mxCell>
        <mxCell id="8mWA7OG3oaemWvRflyDh-2" value="创建动态障碍物&#xa;simulation_create_dynamic_object()" style="whiteSpace=wrap;align=center;verticalAlign=middle;fontStyle=1;strokeWidth=3;fillColor=#FFFFCC;rounded=1;" vertex="1" parent="xqcd4H1gL1RNRrl_MpNa-1">
          <mxGeometry x="40" y="310" width="270" height="50" as="geometry" />
        </mxCell>
        <mxCell id="8mWA7OG3oaemWvRflyDh-8" style="edgeStyle=orthogonalEdgeStyle;rounded=0;orthogonalLoop=1;jettySize=auto;html=1;exitX=0.5;exitY=1;exitDx=0;exitDy=0;" edge="1" parent="xqcd4H1gL1RNRrl_MpNa-1" source="8mWA7OG3oaemWvRflyDh-3" target="8mWA7OG3oaemWvRflyDh-4">
          <mxGeometry relative="1" as="geometry" />
        </mxCell>
        <mxCell id="8mWA7OG3oaemWvRflyDh-3" value="创建智能驾驶车辆simulation_create_ads_vehicle()" style="whiteSpace=wrap;align=center;verticalAlign=middle;fontStyle=1;strokeWidth=3;fillColor=#FFFFCC;rounded=1;" vertex="1" parent="xqcd4H1gL1RNRrl_MpNa-1">
          <mxGeometry x="40" y="390" width="270" height="50" as="geometry" />
        </mxCell>
        <mxCell id="8mWA7OG3oaemWvRflyDh-11" style="edgeStyle=orthogonalEdgeStyle;rounded=0;orthogonalLoop=1;jettySize=auto;html=1;exitX=0.5;exitY=1;exitDx=0;exitDy=0;" edge="1" parent="xqcd4H1gL1RNRrl_MpNa-1" source="8mWA7OG3oaemWvRflyDh-4" target="8mWA7OG3oaemWvRflyDh-9">
          <mxGeometry relative="1" as="geometry" />
        </mxCell>
        <mxCell id="8mWA7OG3oaemWvRflyDh-4" value="初始化智能驾驶车辆&#xa;ads_setup()" style="whiteSpace=wrap;align=center;verticalAlign=middle;fontStyle=1;strokeWidth=3;fillColor=#FFFFCC;rounded=1;" vertex="1" parent="xqcd4H1gL1RNRrl_MpNa-1">
          <mxGeometry x="40" y="470" width="270" height="50" as="geometry" />
        </mxCell>
        <mxCell id="8mWA7OG3oaemWvRflyDh-12" style="edgeStyle=orthogonalEdgeStyle;rounded=0;orthogonalLoop=1;jettySize=auto;html=1;exitX=0.5;exitY=1;exitDx=0;exitDy=0;" edge="1" parent="xqcd4H1gL1RNRrl_MpNa-1" source="8mWA7OG3oaemWvRflyDh-9" target="8mWA7OG3oaemWvRflyDh-10">
          <mxGeometry relative="1" as="geometry" />
        </mxCell>
        <mxCell id="8mWA7OG3oaemWvRflyDh-9" value="选择智能驾驶车辆的目的地ads_select_target_location()" style="whiteSpace=wrap;align=center;verticalAlign=middle;fontStyle=1;strokeWidth=3;fillColor=#FFFFCC;rounded=1;" vertex="1" parent="xqcd4H1gL1RNRrl_MpNa-1">
          <mxGeometry x="40" y="550" width="270" height="50" as="geometry" />
        </mxCell>
        <mxCell id="8mWA7OG3oaemWvRflyDh-19" style="edgeStyle=orthogonalEdgeStyle;rounded=0;orthogonalLoop=1;jettySize=auto;html=1;exitX=1;exitY=0.5;exitDx=0;exitDy=0;" edge="1" parent="xqcd4H1gL1RNRrl_MpNa-1" source="8mWA7OG3oaemWvRflyDh-10" target="8mWA7OG3oaemWvRflyDh-18">
          <mxGeometry relative="1" as="geometry">
            <Array as="points">
              <mxPoint x="360" y="655" />
              <mxPoint x="360" y="185" />
            </Array>
          </mxGeometry>
        </mxCell>
        <mxCell id="8mWA7OG3oaemWvRflyDh-10" value="启动智能驾驶车辆&#xa;ads_resume()" style="whiteSpace=wrap;align=center;verticalAlign=middle;fontStyle=1;strokeWidth=3;fillColor=#FFFFCC;rounded=1;" vertex="1" parent="xqcd4H1gL1RNRrl_MpNa-1">
          <mxGeometry x="40" y="630" width="270" height="50" as="geometry" />
        </mxCell>
        <mxCell id="8mWA7OG3oaemWvRflyDh-16" value="" style="edgeStyle=orthogonalEdgeStyle;rounded=0;orthogonalLoop=1;jettySize=auto;html=1;exitX=0.5;exitY=1;exitDx=0;exitDy=0;exitPerimeter=0;entryX=0.5;entryY=0;entryDx=0;entryDy=0;" edge="1" parent="xqcd4H1gL1RNRrl_MpNa-1" source="8mWA7OG3oaemWvRflyDh-18" target="8mWA7OG3oaemWvRflyDh-28">
          <mxGeometry relative="1" as="geometry">
            <mxPoint x="488" y="220" as="sourcePoint" />
            <mxPoint x="535" y="250" as="targetPoint" />
          </mxGeometry>
        </mxCell>
        <mxCell id="8mWA7OG3oaemWvRflyDh-20" value="是" style="edgeLabel;html=1;align=center;verticalAlign=middle;resizable=0;points=[];" vertex="1" connectable="0" parent="8mWA7OG3oaemWvRflyDh-16">
          <mxGeometry x="-0.441" y="1" relative="1" as="geometry">
            <mxPoint as="offset" />
          </mxGeometry>
        </mxCell>
        <mxCell id="8mWA7OG3oaemWvRflyDh-27" value="" style="edgeStyle=orthogonalEdgeStyle;rounded=0;orthogonalLoop=1;jettySize=auto;html=1;startArrow=none;startFill=0;exitX=0.5;exitY=1;exitDx=0;exitDy=0;" edge="1" parent="xqcd4H1gL1RNRrl_MpNa-1" source="8mWA7OG3oaemWvRflyDh-28" target="8mWA7OG3oaemWvRflyDh-26">
          <mxGeometry relative="1" as="geometry">
            <mxPoint x="535" y="310" as="sourcePoint" />
          </mxGeometry>
        </mxCell>
        <mxCell id="8mWA7OG3oaemWvRflyDh-21" value="&lt;div&gt;否&lt;/div&gt;" style="edgeStyle=orthogonalEdgeStyle;rounded=0;orthogonalLoop=1;jettySize=auto;html=1;exitX=1;exitY=0.5;exitDx=0;exitDy=0;exitPerimeter=0;entryX=0;entryY=0.5;entryDx=0;entryDy=0;" edge="1" parent="xqcd4H1gL1RNRrl_MpNa-1" source="8mWA7OG3oaemWvRflyDh-18" target="8mWA7OG3oaemWvRflyDh-29">
          <mxGeometry relative="1" as="geometry">
            <mxPoint x="640" y="165" as="targetPoint" />
          </mxGeometry>
        </mxCell>
        <mxCell id="8mWA7OG3oaemWvRflyDh-18" value="&lt;div&gt;&lt;b&gt;如果智能驾驶车辆行驶&lt;/b&gt;&lt;/div&gt;&lt;div&gt;&lt;b&gt;到动态障碍物旁边&lt;/b&gt;&lt;/div&gt;" style="strokeWidth=2;html=1;shape=mxgraph.flowchart.decision;whiteSpace=wrap;rounded=1;fillColor=#dae8fc;strokeColor=#6c8ebf;" vertex="1" parent="xqcd4H1gL1RNRrl_MpNa-1">
          <mxGeometry x="390" y="120" width="196" height="90" as="geometry" />
        </mxCell>
        <mxCell id="8mWA7OG3oaemWvRflyDh-32" value="是" style="edgeStyle=orthogonalEdgeStyle;rounded=0;orthogonalLoop=1;jettySize=auto;html=1;exitX=0.5;exitY=1;exitDx=0;exitDy=0;startArrow=none;startFill=0;" edge="1" parent="xqcd4H1gL1RNRrl_MpNa-1" source="8mWA7OG3oaemWvRflyDh-26" target="8mWA7OG3oaemWvRflyDh-31">
          <mxGeometry relative="1" as="geometry" />
        </mxCell>
        <mxCell id="8mWA7OG3oaemWvRflyDh-33" value="否" style="edgeStyle=orthogonalEdgeStyle;rounded=0;orthogonalLoop=1;jettySize=auto;html=1;exitX=1;exitY=0.5;exitDx=0;exitDy=0;entryX=1;entryY=0.5;entryDx=0;entryDy=0;startArrow=none;startFill=0;" edge="1" parent="xqcd4H1gL1RNRrl_MpNa-1" source="8mWA7OG3oaemWvRflyDh-26" target="8mWA7OG3oaemWvRflyDh-28">
          <mxGeometry relative="1" as="geometry" />
        </mxCell>
        <mxCell id="8mWA7OG3oaemWvRflyDh-26" value="如果动态障碍物在智能驾驶车辆前方" style="rhombus;whiteSpace=wrap;html=1;rounded=1;fontStyle=1;strokeWidth=3;fillColor=#dae8fc;strokeColor=#6c8ebf;" vertex="1" parent="xqcd4H1gL1RNRrl_MpNa-1">
          <mxGeometry x="386.87" y="340" width="281.25" height="70" as="geometry" />
        </mxCell>
        <mxCell id="8mWA7OG3oaemWvRflyDh-28" value="动态障碍物大于智能驾驶车辆的速度向前行驶&#xa;simulation_dynamic_object_move()" style="whiteSpace=wrap;align=center;verticalAlign=middle;fontStyle=1;strokeWidth=3;fillColor=#FFFFCC;rounded=1;" vertex="1" parent="xqcd4H1gL1RNRrl_MpNa-1">
          <mxGeometry x="394.99" y="260" width="265.01" height="50" as="geometry" />
        </mxCell>
        <mxCell id="8mWA7OG3oaemWvRflyDh-29" value="本次测试结束，结果设为FAIL&lt;br&gt;case_set_result_and_terminate(Result.FAIL, &quot;FAIL&quot;)" style="whiteSpace=wrap;html=1;rounded=1;fontStyle=1;strokeColor=#000000;strokeWidth=3;fillColor=#fff2cc;" vertex="1" parent="xqcd4H1gL1RNRrl_MpNa-1">
          <mxGeometry x="620" y="137.5" width="310" height="55" as="geometry" />
        </mxCell>
        <mxCell id="8mWA7OG3oaemWvRflyDh-34" style="edgeStyle=orthogonalEdgeStyle;rounded=0;orthogonalLoop=1;jettySize=auto;html=1;exitX=0.5;exitY=1;exitDx=0;exitDy=0;startArrow=none;startFill=0;" edge="1" parent="xqcd4H1gL1RNRrl_MpNa-1" source="8mWA7OG3oaemWvRflyDh-31" target="8mWA7OG3oaemWvRflyDh-35">
          <mxGeometry relative="1" as="geometry">
            <mxPoint x="527" y="570" as="targetPoint" />
          </mxGeometry>
        </mxCell>
        <mxCell id="8mWA7OG3oaemWvRflyDh-31" value="动态障碍物加塞进入智能驾驶车辆的车道&#xa;simulation_dynamic_object_move()" style="whiteSpace=wrap;align=center;verticalAlign=middle;fontStyle=1;strokeWidth=3;fillColor=#FFFFCC;rounded=1;" vertex="1" parent="xqcd4H1gL1RNRrl_MpNa-1">
          <mxGeometry x="394.99" y="450" width="265.01" height="50" as="geometry" />
        </mxCell>
        <mxCell id="8mWA7OG3oaemWvRflyDh-39" value="否" style="edgeStyle=orthogonalEdgeStyle;rounded=0;orthogonalLoop=1;jettySize=auto;html=1;entryX=0;entryY=0.5;entryDx=0;entryDy=0;startArrow=none;startFill=0;" edge="1" parent="xqcd4H1gL1RNRrl_MpNa-1" source="8mWA7OG3oaemWvRflyDh-35" target="8mWA7OG3oaemWvRflyDh-38">
          <mxGeometry relative="1" as="geometry" />
        </mxCell>
        <mxCell id="8mWA7OG3oaemWvRflyDh-40" value="是" style="edgeStyle=orthogonalEdgeStyle;rounded=0;orthogonalLoop=1;jettySize=auto;html=1;startArrow=none;startFill=0;entryX=0.5;entryY=0;entryDx=0;entryDy=0;" edge="1" parent="xqcd4H1gL1RNRrl_MpNa-1" source="8mWA7OG3oaemWvRflyDh-35" target="8mWA7OG3oaemWvRflyDh-41">
          <mxGeometry relative="1" as="geometry">
            <mxPoint x="527.4949999999999" y="640" as="targetPoint" />
          </mxGeometry>
        </mxCell>
        <mxCell id="8mWA7OG3oaemWvRflyDh-35" value="是否发生碰撞" style="rhombus;whiteSpace=wrap;html=1;rounded=1;fontStyle=1;strokeWidth=3;fillColor=#dae8fc;strokeColor=#6c8ebf;" vertex="1" parent="xqcd4H1gL1RNRrl_MpNa-1">
          <mxGeometry x="386.87" y="530" width="281.25" height="70" as="geometry" />
        </mxCell>
        <mxCell id="8mWA7OG3oaemWvRflyDh-44" value="是" style="edgeStyle=orthogonalEdgeStyle;rounded=0;orthogonalLoop=1;jettySize=auto;html=1;exitX=0.5;exitY=0;exitDx=0;exitDy=0;entryX=0.5;entryY=1;entryDx=0;entryDy=0;startArrow=none;startFill=0;" edge="1" parent="xqcd4H1gL1RNRrl_MpNa-1" source="8mWA7OG3oaemWvRflyDh-38" target="8mWA7OG3oaemWvRflyDh-43">
          <mxGeometry relative="1" as="geometry" />
        </mxCell>
        <mxCell id="8mWA7OG3oaemWvRflyDh-46" value="否" style="edgeStyle=orthogonalEdgeStyle;rounded=0;orthogonalLoop=1;jettySize=auto;html=1;exitX=0.5;exitY=1;exitDx=0;exitDy=0;entryX=0.5;entryY=0;entryDx=0;entryDy=0;startArrow=none;startFill=0;" edge="1" parent="xqcd4H1gL1RNRrl_MpNa-1" source="8mWA7OG3oaemWvRflyDh-38" target="8mWA7OG3oaemWvRflyDh-45">
          <mxGeometry relative="1" as="geometry" />
        </mxCell>
        <mxCell id="8mWA7OG3oaemWvRflyDh-38" value="如果测试运行超过600秒" style="rhombus;whiteSpace=wrap;html=1;rounded=1;fontStyle=1;strokeWidth=3;fillColor=#dae8fc;strokeColor=#6c8ebf;" vertex="1" parent="xqcd4H1gL1RNRrl_MpNa-1">
          <mxGeometry x="710" y="530" width="281.25" height="70" as="geometry" />
        </mxCell>
        <mxCell id="8mWA7OG3oaemWvRflyDh-41" value="本次测试结束，结果设为FAIL&lt;br&gt;case_set_result_and_terminate(Result.FAIL, &quot;collision&quot;)" style="whiteSpace=wrap;html=1;rounded=1;fontStyle=1;strokeColor=#000000;strokeWidth=3;fillColor=#fff2cc;" vertex="1" parent="xqcd4H1gL1RNRrl_MpNa-1">
          <mxGeometry x="364.37" y="630" width="326.26" height="50" as="geometry" />
        </mxCell>
        <mxCell id="8mWA7OG3oaemWvRflyDh-43" value="本次测试结束，结果设为FAIL&lt;br&gt;case_set_result_and_terminate(Result.FAIL, &quot;timeout&quot;)" style="whiteSpace=wrap;html=1;rounded=1;fontStyle=1;strokeColor=#000000;strokeWidth=3;fillColor=#fff2cc;" vertex="1" parent="xqcd4H1gL1RNRrl_MpNa-1">
          <mxGeometry x="689.84" y="440" width="321.56" height="50" as="geometry" />
        </mxCell>
        <mxCell id="8mWA7OG3oaemWvRflyDh-45" value="本次测试结束，结果设为PASS&lt;br&gt;case_set_result_and_terminate(Result.PASS)" style="whiteSpace=wrap;html=1;rounded=1;fontStyle=1;strokeColor=#000000;strokeWidth=3;fillColor=#fff2cc;" vertex="1" parent="xqcd4H1gL1RNRrl_MpNa-1">
          <mxGeometry x="715.63" y="630" width="270" height="50" as="geometry" />
        </mxCell>
      </root>
    </mxGraphModel>
  </diagram>
</mxfile>
